<?xml version="1.0" encoding="UTF-8" standalone="no"?>
<svg
   xmlns:dc="http://purl.org/dc/elements/1.1/"
   xmlns:cc="http://creativecommons.org/ns#"
   xmlns:rdf="http://www.w3.org/1999/02/22-rdf-syntax-ns#"
   xmlns:svg="http://www.w3.org/2000/svg"
   xmlns="http://www.w3.org/2000/svg"
   xmlns:sodipodi="http://sodipodi.sourceforge.net/DTD/sodipodi-0.dtd"
   xmlns:inkscape="http://www.inkscape.org/namespaces/inkscape"
   version="1.0"
   width="1280.000000pt"
   height="729.000000pt"
   viewBox="0 0 1280.000000 729.000000"
   preserveAspectRatio="xMidYMid meet"
   id="svg10"
   sodipodi:docname="161869.svg"
   inkscape:version="0.92.5 (2060ec1f9f, 2020-04-08)">
  <defs
     id="defs14" />
  <sodipodi:namedview
     pagecolor="#ffffff"
     bordercolor="#666666"
     borderopacity="1"
     objecttolerance="10"
     gridtolerance="10"
     guidetolerance="10"
     inkscape:pageopacity="0"
     inkscape:pageshadow="2"
     inkscape:window-width="1920"
     inkscape:window-height="1020"
     id="namedview12"
     showgrid="false"
     inkscape:zoom="0.20976563"
     inkscape:cx="853.33333"
     inkscape:cy="486"
     inkscape:window-x="0"
     inkscape:window-y="0"
     inkscape:window-maximized="1"
     inkscape:current-layer="svg10" />
  <metadata
     id="metadata2">
Created by potrace 1.15, written by Peter Selinger 2001-2017
<rdf:RDF>
  <cc:Work
     rdf:about="">
    <dc:format>image/svg+xml</dc:format>
    <dc:type
       rdf:resource="http://purl.org/dc/dcmitype/StillImage" />
  </cc:Work>
</rdf:RDF>
</metadata>
  <path
     style="fill:#dd5b0b;stroke:none;stroke-width:0.1;fill-opacity:1"
     inkscape:connector-curvature="0"
     id="path4"
     d="m 237.4,1.5 c -19.2,4.2 -51.1,22.1 -66.2,37.2 -5.1,5.2 -8.3,9.3 -10.5,14.1 -2.9,6.1 -3.2,7.6 -3.2,16.2 0,12.1 1.9,16.7 18.6,44.6 6.6,11.3 13.8,24.4 16,29.2 12.9,29.4 11.6,58.1 -4,88.4 -17.4,33.9 -38.4,52.4 -68.6,60.4 -9.7,2.6 -11.2,2.7 -47,3.4 -31.8,0.5 -37.7,0.9 -42,2.4 C 15,302.9 7,313.7 2.4,335 c -2.6,12.2 -2.6,46.8 0,59 4.6,21.3 12.6,32.1 28.1,37.6 4.3,1.5 10.2,1.9 42,2.4 35.8,0.7 37.3,0.8 47,3.4 30.2,8 51.2,26.5 68.6,60.4 15.6,30.3 16.9,59 4,88.4 -2.2,4.8 -9.4,17.9 -16,29.2 -16.7,27.9 -18.6,32.5 -18.6,44.6 0,8.6 0.3,10.1 3.2,16.2 4.2,9 14.5,19.2 28.6,28.5 29,19.2 53.7,27.3 69.1,22.9 13.4,-3.9 21.2,-12.1 34.6,-36.6 15.9,-28.9 22,-37.8 33.2,-48.6 16.6,-16.1 35,-23.9 62,-26.4 31.6,-2.9 59.5,3.9 80.6,19.8 12.7,9.5 21.9,21.6 36.8,48.7 4.8,8.8 10.9,19.1 13.5,23 16.6,24.9 36.5,27.6 72.3,9.8 23.7,-11.8 44,-28.2 50,-40.5 5.2,-10.6 5.1,-22.1 -0.3,-34.8 -1.6,-3.7 -7.6,-14.6 -13.4,-24.2 -18.5,-30.8 -23.7,-43.4 -25.9,-62.7 -1,-9.4 -0.9,-12.2 0.6,-21.4 2.9,-18.1 10.4,-36.2 21.8,-52.9 16.1,-23.6 34.2,-37 58.4,-43.5 9.5,-2.5 11.3,-2.6 46.9,-3.3 37.8,-0.7 40.7,-1 48.6,-5.1 16.4,-8.3 23.9,-28.5 23.9,-64.4 0,-35.9 -7.5,-56.1 -23.9,-64.4 -7.9,-4.1 -10.8,-4.4 -48.6,-5.1 -35.6,-0.7 -37.4,-0.8 -46.9,-3.3 -24.2,-6.5 -42.3,-19.9 -58.4,-43.5 -11.4,-16.7 -18.9,-34.8 -21.8,-52.9 -1.5,-9.2 -1.6,-12 -0.6,-21.4 2.2,-19.3 7.4,-31.9 25.9,-62.7 5.8,-9.6 11.8,-20.5 13.4,-24.2 5.4,-12.7 5.5,-24.2 0.3,-34.8 -6,-12.3 -26.3,-28.7 -50,-40.5 -35.8,-17.8 -55.7,-15.1 -72.3,9.8 -2.6,3.8 -8.7,14.2 -13.5,23 -10.5,19.1 -15.4,26.6 -23.5,36.1 -13.8,16.4 -34.9,27.7 -58.6,31.5 -11.5,1.8 -37.1,1.6 -47.6,-0.4 C 353.4,107.3 337.9,99 323,83.4 313.8,73.7 309.1,66.6 296.5,44 284.9,23.3 282.2,19.1 276.1,12.6 265.4,1.4 253.6,-2 237.4,1.5 Z M 431.2,207 c 108,20.9 163.3,140.8 109.3,236.8 -42.8,76.1 -141,103.5 -217.5,60.7 -75,-42 -103.4,-135 -65,-212 23.8,-47.6 71.2,-81 124.1,-87.4 12.5,-1.5 36.5,-0.6 49.1,1.9 z" />
  <path
     style="fill:#a7370b;stroke:none;stroke-width:0.1;fill-opacity:1"
     inkscape:connector-curvature="0"
     id="path6"
     d="m 983.5,65.7 c -14.7,3.1 -23.9,10.2 -27.3,21.2 -1.4,4.6 -1.6,9 -1.5,25.6 0.4,30.8 -1.6,42.7 -9.3,57.6 -7,13.4 -21.1,25.7 -39.8,34.9 -14.5,7.2 -24,9.4 -38.5,8.7 -16.9,-0.7 -24.2,-3.5 -52.1,-20.1 -22.2,-13.3 -31.6,-15.2 -43.1,-8.9 -9.2,5 -21.1,19.7 -29.8,37 -9.2,18.2 -10.8,30.2 -5.7,40.6 3.4,7.1 9.3,12 25,20.8 25.8,14.4 34.2,20.6 42.1,31.1 8.6,11.4 12.8,23 14.5,40.5 1.7,17.7 -1.1,35.7 -7.6,48.9 -7.3,14.8 -18.2,25 -39.2,36.6 -31.7,17.5 -37.6,23.7 -37.5,39.3 0.1,20.2 23.2,58.1 40,65.8 6,2.6 14.8,2.8 22,0.3 2.9,-0.9 11.7,-5.6 19.5,-10.3 26.7,-16.1 38.2,-20.3 55,-20.3 12.3,0 22.4,2.6 35.4,9 18.7,9.2 32.8,21.5 39.8,34.9 7.8,14.9 9.7,26.8 9.3,57.6 -0.1,17.3 0.1,20.8 1.7,25.8 3.8,11.5 12.5,18 28.5,21.2 12,2.5 40.7,1.7 50.1,-1.3 13.2,-4.3 19.8,-11 22.6,-23.1 0.9,-3.8 1.4,-13.1 1.4,-28.9 0,-25 1,-33.4 5.5,-44.4 6.9,-17 23.5,-32.8 45,-42.9 11.8,-5.6 21.8,-7.9 33.4,-7.9 16.8,0 26.9,3.5 49.4,16.9 30.4,18.1 38.4,19.7 52.4,10.5 13.2,-8.9 31.3,-38.8 34.5,-57.2 2.9,-17.2 -3.6,-26.5 -28.2,-39.8 -5.8,-3.2 -13.4,-7.6 -17,-9.7 -26.9,-16.2 -39,-38.3 -39,-71.2 0,-31.5 11.4,-53.5 35.6,-69.1 2.8,-1.8 10.2,-6.1 16.5,-9.5 22,-12.1 28.7,-17.9 31.6,-27.8 2.8,-9.7 -0.2,-23 -8.7,-38.9 -9.6,-17.8 -19.8,-30 -29.3,-34.9 -4.2,-2.2 -6.5,-2.7 -12.3,-2.7 -6.2,0 -8.1,0.5 -15.5,4 -4.6,2.3 -13.3,7.1 -19.4,10.8 -22.1,13.5 -33.9,17.6 -50.5,17.6 -11.7,0 -21.7,-2.3 -33.5,-7.9 -21.5,-10.1 -38.1,-25.9 -45,-42.9 -4.5,-11 -5.5,-19.4 -5.5,-44.1 0,-13.2 -0.5,-25.3 -1.1,-28.3 -3.1,-14.5 -11.7,-22 -29.4,-25.3 -10.1,-2 -35.6,-1.9 -45,0.2 z m 48.3,181.3 c 24.8,5.3 50.1,20.3 66,39.1 50.4,59.8 33,149.4 -36,184.9 -18.6,9.6 -34.4,13.4 -55.8,13.4 -20.1,0 -36.8,-4.1 -55,-13.5 -12.1,-6.2 -20.5,-12.6 -30.6,-23.1 -32.5,-33.8 -42.5,-81 -26.5,-124.7 12,-32.8 38.1,-59 71.5,-71.5 6.6,-2.5 22.6,-6.2 30.1,-7 8,-0.8 27.2,0.4 36.3,2.4 z" />
</svg>
